<svg width="28" height="28" viewBox="0 0 28 28" fill="none" xmlns="http://www.w3.org/2000/svg">
<rect width="28" height="28" fill="#404040"/>
<path d="M14.3385 6.68094C16.8384 6.68094 17.1257 6.6953 18.1171 6.73841C19.0222 6.78151 19.525 6.92518 19.8555 7.05448C20.2865 7.22688 20.6025 7.42802 20.933 7.75846C21.2634 8.0889 21.4646 8.39061 21.637 8.83599C21.7663 9.16643 21.9243 9.6549 21.953 10.5744C21.9961 11.5657 22.0105 11.8531 22.0105 14.3529C22.0105 16.8528 21.9961 17.1401 21.953 18.1314C21.9099 19.0365 21.7663 19.5394 21.637 19.8698C21.4646 20.3008 21.2634 20.6169 20.933 20.9474C20.6025 21.2778 20.3008 21.4789 19.8555 21.6513C19.525 21.7806 19.0365 21.9387 18.1171 21.9674C17.1257 22.0105 16.8384 22.0249 14.3385 22.0249C11.8387 22.0249 11.5513 22.0105 10.56 21.9674C9.6549 21.9243 9.15206 21.7806 8.82162 21.6513C8.39061 21.4789 8.07454 21.2778 7.74409 20.9474C7.41365 20.6169 7.21252 20.3152 7.04011 19.8698C6.91081 19.5394 6.75277 19.0509 6.72404 18.1314C6.68094 17.1401 6.66657 16.8528 6.66657 14.3529C6.66657 11.8531 6.68094 11.5657 6.72404 10.5744C6.76714 9.66927 6.91081 9.16643 7.04011 8.83599C7.21252 8.40498 7.41365 8.0889 7.74409 7.75846C8.07454 7.42802 8.37624 7.22688 8.82162 7.05448C9.15206 6.92518 9.64054 6.76714 10.56 6.73841C11.5513 6.6953 11.8387 6.68094 14.3385 6.68094ZM14.3385 5C11.7956 5 11.4795 5.01437 10.4882 5.05747C9.49687 5.10057 8.80725 5.25861 8.2182 5.48848C7.60042 5.73272 7.08321 6.04879 6.566 6.566C6.04879 7.08321 5.73272 7.60042 5.48848 8.2182C5.25861 8.80725 5.10057 9.49687 5.05747 10.4882C5.01437 11.4795 5 11.81 5 14.3385C5 16.8671 5.01437 17.1976 5.05747 18.1889C5.10057 19.1802 5.25861 19.8698 5.48848 20.4589C5.73272 21.0767 6.04879 21.5939 6.566 22.1111C7.08321 22.6283 7.60042 22.9444 8.2182 23.1886C8.80725 23.4185 9.49687 23.5765 10.4882 23.6196C11.4795 23.6627 11.81 23.6771 14.3385 23.6771C16.8671 23.6771 17.1976 23.6627 18.1889 23.6196C19.1802 23.5765 19.8698 23.4185 20.4589 23.1886C21.0767 22.9444 21.5939 22.6283 22.1111 22.1111C22.6283 21.5939 22.9444 21.0767 23.1886 20.4589C23.4185 19.8698 23.5765 19.1802 23.6196 18.1889C23.6627 17.1976 23.6771 16.8671 23.6771 14.3385C23.6771 11.81 23.6627 11.4795 23.6196 10.4882C23.5765 9.49687 23.4185 8.80725 23.1886 8.2182C22.9444 7.60042 22.6283 7.08321 22.1111 6.566C21.5939 6.04879 21.0767 5.73272 20.4589 5.48848C19.8698 5.25861 19.1802 5.10057 18.1889 5.05747C17.1976 5.01437 16.8815 5 14.3385 5Z" fill="white"/>
<path d="M14.3385 9.54004C11.6806 9.54004 9.53992 11.6951 9.53992 14.3386C9.53992 16.9965 11.695 19.1372 14.3385 19.1372C16.9964 19.1372 19.1371 16.9821 19.1371 14.3386C19.1371 11.6951 16.9964 9.54004 14.3385 9.54004ZM14.3385 17.4562C12.6145 17.4562 11.2209 16.0627 11.2209 14.3386C11.2209 12.6146 12.6145 11.221 14.3385 11.221C16.0625 11.221 17.4561 12.6146 17.4561 14.3386C17.4561 16.0627 16.0625 17.4562 14.3385 17.4562Z" fill="white"/>
<path d="M19.3239 10.4739C19.9428 10.4739 20.4445 9.97219 20.4445 9.35329C20.4445 8.73439 19.9428 8.23267 19.3239 8.23267C18.705 8.23267 18.2032 8.73439 18.2032 9.35329C18.2032 9.97219 18.705 10.4739 19.3239 10.4739Z" fill="white"/>
</svg>
